<svg xmlns="http://www.w3.org/2000/svg" viewBox="0 0 64 64" role="img" aria-labelledby="title">
  <title id="title">Küchen Obermeier Favicon</title>
  <defs>
    <linearGradient id="grad" x1="0%" y1="0%" x2="100%" y2="100%">
      <stop offset="0%" stop-color="#b71c1c" />
      <stop offset="100%" stop-color="#d84315" />
    </linearGradient>
  </defs>
  <rect x="2" y="2" width="60" height="60" rx="14" ry="14" fill="url(#grad)" />
  <path
    d="M18.5 41V21h8.8c3.9 0 6.7 2.4 6.7 5.9 0 2.3-1.3 4.3-3.4 5.1l3.9 9h-5.5l-3.2-8h-2.4V41h-4.9zm4.9-11.7h3.4c1.2 0 2.1-.8 2.1-1.9s-.9-1.9-2.1-1.9h-3.4v3.8zm19.4-8.3h5.3l-8.4 12.6V41h-4.9v-7.4L29 21h5.5l4.2 6.9 4.1-6.9z"
    fill="#fff"
  />
</svg>
